PathFileType	4	(X/Y/Z)	 s07c0101.trc
DataRate	CameraRate	NumFrames	NumMarkers	Units	OrigDataRate	OrigDataStartFrame	OrigNumFrames
200	200	4	48	mm	200	501	2000
Frame#	Time	racr			lacr			c7			jug			rlel			rdr			llel			ldr			s2			lic			ric			lasi			rasi			rpsi			lpsi			rgt			lgt			rth1			rth2			rth3			rth4			rlfc			rmfc			rsh1			rsh2			rsh3			rsh4			rlmal			rcal			rtoe			rmt5			lth1			lth2			lth4			lth3			llfc			lmfc			lsh1			lsh2			lsh3			lsh4			llmal			lcal			ltoe			lmt5			SBIKE			LBIKE			RBIKE			
		X1	Y1	Z1	X2	Y2	Z2	X3	Y3	Z3	X4	Y4	Z4	X5	Y5	Z5	X6	Y6	Z6	X7	Y7	Z7	X8	Y8	Z8	X9	Y9	Z9	X10	Y10	Z10	X11	Y11	Z11	X12	Y12	Z12	X13	Y13	Z13	X14	Y14	Z14	X15	Y15	Z15	X16	Y16	Z16	X17	Y17	Z17	X18	Y18	Z18	X19	Y19	Z19	X20	Y20	Z20	X21	Y21	Z21	X22	Y22	Z22	X23	Y23	Z23	X24	Y24	Z24	X25	Y25	Z25	X26	Y26	Z26	X27	Y27	Z27	X28	Y28	Z28	X29	Y29	Z29	X30	Y30	Z30	X31	Y31	Z31	X32	Y32	Z32	X33	Y33	Z33	X34	Y34	Z34	X35	Y35	Z35	X36	Y36	Z36	X37	Y37	Z37	X38	Y38	Z38	X39	Y39	Z39	X40	Y40	Z40	X41	Y41	Z41	X42	Y42	Z42	X43	Y43	Z43	X44	Y44	Z44	X45	Y45	Z45	X46	Y46	Z46	X47	Y47	Z47	X48	Y48	Z48	
501	2.5050	500.720752	1399.272122	-123.251876	467.240053	1411.255657	-359.249604	444.488831	1448.592377	-235.257232	404.582789	1301.656465	-238.660100	498.568235	1089.225444	55.588401	712.175055	914.782746	-43.210116	511.153688	1106.947231	-514.432856	719.085986	915.623931	-405.501897	-145.826696	1210.638064	-201.736135	-6.912105	1292.996864	-347.671360	39.066440	1239.192855	-65.583648	31.827897	1216.935955	-336.159967	53.948169	1192.836092	-85.296568	-112.965631	1246.162558	-147.700604	-116.513748	1269.906224	-253.005651	-7.203036	1110.510256	-30.752958	-43.419559	1135.935667	-391.213586	117.193107	1026.873159	-34.622222	195.601722	989.660864	-48.228472	247.658929	921.665258	-51.576402	215.638405	1016.993213	-63.868099	328.964060	810.525013	-85.858143	313.509770	796.072782	-190.592458	237.018957	702.108064	-61.301106	199.714188	623.050962	-74.719597	129.271895	571.163303	-69.400417	213.038175	613.641140	-112.799922	41.090528	470.360318	-67.056667	-27.805824	500.135829	-98.281879	115.223877	248.169880	-121.886198	46.320623	292.631935	-50.203489	49.178576	1044.680457	-404.024252	130.203803	1009.083662	-406.197736	152.681655	1037.107147	-399.123891	184.288218	938.442583	-403.549175	311.980104	818.175422	-378.677642	304.839771	794.069777	-284.465058	280.082508	672.516691	-403.613530	284.503590	588.106346	-385.951932	246.693024	506.486919	-395.012655	285.597743	590.269782	-343.731987	210.328691	373.542352	-395.862117	148.158483	320.445710	-366.559973	434.625514	363.515003	-350.615297	364.412180	321.396131	-418.500009	-260.421049	980.051638	-227.698971	-76.179873	83.445015	-435.071284	-81.956592	79.237007	-37.741460	
502	2.5100	499.537309	1400.405678	-121.474811	467.715768	1411.561293	-358.493656	444.152183	1449.822788	-234.040309	403.393752	1303.114938	-237.290244	498.662559	1089.364264	55.312379	712.238792	914.823962	-43.333904	512.269648	1107.767436	-514.444696	719.196252	915.624007	-405.612103	-144.457853	1209.510480	-203.861561	-6.298616	1291.780848	-349.671557	38.661559	1238.878735	-67.153650	32.618687	1215.678708	-338.093318	54.133323	1192.787761	-86.838068	-113.079085	1245.600315	-148.620938	-116.309297	1268.972100	-254.599606	-6.187660	1110.580846	-31.923007	-43.375418	1134.189363	-392.424041	119.187703	1028.577853	-34.695662	198.470011	993.650056	-48.808037	252.689447	927.346706	-51.591109	217.146224	1020.805599	-65.715115	336.027198	818.205315	-87.544913	320.025195	803.447917	-192.377830	244.008002	710.163773	-62.719747	206.053618	631.353603	-75.912600	135.179693	580.199207	-70.050856	218.878367	621.754848	-114.375059	45.723300	480.527887	-67.316643	-21.939640	511.851791	-98.567744	113.769645	255.576645	-123.152869	47.375478	302.715825	-50.181186	47.284706	1041.003236	-405.699153	127.449740	1003.635704	-408.331991	150.576087	1031.167466	-401.035579	179.706766	931.762584	-405.501747	303.770829	808.368977	-380.012052	300.085585	783.831159	-286.996903	272.820093	662.615292	-405.796970	279.015941	578.284376	-388.433967	242.165840	496.151788	-396.145238	281.774224	580.376681	-346.211556	208.988674	362.454535	-395.869304	147.288055	309.474578	-366.402101	433.751722	352.652343	-350.708899	363.465609	310.532303	-418.587416	-260.389753	980.008179	-227.882914	-76.171585	83.400661	-435.104852	-81.964061	79.224049	-37.759741	
503	2.5150	498.214456	1401.775385	-119.412654	468.327041	1412.134597	-357.495773	443.744651	1451.303237	-232.740198	402.242598	1304.799511	-235.904706	498.699056	1089.648505	55.088633	712.352330	914.903693	-43.558543	513.112361	1108.623707	-513.803991	719.188704	915.663412	-405.869639	-143.632559	1208.869804	-205.770638	-5.471717	1290.820750	-351.728694	38.283448	1238.867740	-68.847126	33.465177	1214.546579	-339.745120	54.305520	1192.976713	-88.554837	-113.141054	1244.681392	-151.961460	-115.033503	1267.900712	-257.266113	-5.193467	1111.084962	-33.374844	-43.109707	1132.627376	-393.729675	120.811581	1030.752419	-35.535225	201.007599	997.923938	-49.838576	257.042645	933.031105	-52.110770	218.711427	1025.079638	-68.032696	342.906997	826.020509	-89.288759	327.063131	811.019735	-195.018643	250.946180	718.368141	-64.103372	212.168358	639.929058	-77.191521	141.053192	589.205742	-71.025552	224.729522	630.273464	-115.789658	50.380831	490.692031	-67.653860	-15.378535	523.485251	-98.329580	114.221016	264.167295	-123.277011	48.968982	312.928760	-50.265364	45.467970	1037.544151	-407.420576	124.770217	998.672159	-410.530094	148.626901	1025.513166	-403.074768	175.168895	925.380620	-407.598686	295.867317	798.846581	-382.152525	291.046863	775.330964	-289.451701	265.811928	652.749910	-408.014782	273.412984	568.577544	-390.566609	237.564157	485.904070	-397.292238	277.379639	570.758239	-348.461521	207.163630	351.857856	-395.879418	145.876543	298.887142	-366.359288	432.490442	341.877760	-350.806542	362.060234	299.715445	-418.450450	-260.361146	980.105955	-228.304030	-76.163634	83.344644	-435.134690	-81.955823	79.220857	-37.777215	
504	2.5200	496.679012	1403.396687	-116.957652	469.098687	1412.954075	-356.250789	443.321227	1453.088452	-231.144924	400.971807	1306.824594	-234.300680	498.697711	1089.966607	54.889117	712.496034	915.079991	-43.846265	514.183158	1109.893100	-513.589608	719.119261	915.770947	-406.274766	-142.767717	1208.509564	-207.788422	-4.389708	1290.083162	-353.888530	37.854906	1239.324739	-70.659034	34.514487	1213.738880	-341.656242	54.459255	1193.526741	-90.304806	-112.913809	1244.772236	-153.565423	-114.819313	1267.494945	-259.089134	-4.152019	1111.845518	-34.817559	-42.655124	1131.189855	-395.111788	122.418259	1033.537431	-36.824213	203.392857	1002.474174	-51.140407	260.649352	938.986154	-53.402240	220.287404	1029.898894	-69.636702	349.482473	833.902072	-91.037464	333.237842	819.344101	-196.223367	257.471435	726.763929	-65.549351	218.169495	648.556620	-78.525876	146.667463	598.378497	-71.871360	230.127451	638.998666	-116.944629	55.011542	500.853522	-68.069579	-10.675108	534.718870	-98.387657	115.622349	273.243415	-123.184169	51.169430	323.090402	-50.350848	43.718475	1034.223174	-409.137619	122.160620	993.688098	-412.559752	146.701915	1019.900001	-405.109103	170.685326	919.098982	-409.617128	287.909750	789.462946	-384.455575	283.619264	766.520958	-291.753854	259.653086	643.152936	-409.828499	268.321283	559.154605	-392.181620	233.446963	476.029548	-398.525421	272.292567	561.441655	-350.053816	204.887137	341.716671	-396.174557	143.887368	288.853130	-366.515380	430.690770	330.867986	-350.806572	360.148522	289.042659	-418.567656	-260.332431	980.221630	-228.753647	-76.161848	83.315501	-435.145483	-81.949283	79.233103	-37.790058	
